<svg width="40" height="41" viewBox="0 0 40 41" fill="none" xmlns="http://www.w3.org/2000/svg">
<path fill-rule="evenodd" clip-rule="evenodd" d="M12.0798 0.121484C14.1566 0.023239 14.8196 0 20.1076 0C25.3956 0 26.0586 0.023239 28.1354 0.121484C30.2079 0.219488 31.6233 0.560781 32.8618 1.05986C34.1422 1.57568 35.228 2.26596 36.3105 3.38824C37.393 4.51061 38.0587 5.63641 38.5563 6.96392C39.0376 8.24799 39.3668 9.7155 39.4613 11.8642C39.5561 14.0174 39.5785 14.7049 39.5785 20.1875C39.5785 25.6701 39.5561 26.3576 39.4613 28.5108C39.3668 30.6595 39.0376 32.127 38.5563 33.4111C38.0587 34.7386 37.393 35.8644 36.3105 36.9868C35.228 38.109 34.1422 38.7993 32.8618 39.3152C31.6233 39.8142 30.2079 40.1555 28.1354 40.2535C26.0586 40.3518 25.3956 40.375 20.1076 40.375C14.8196 40.375 14.1566 40.3518 12.0798 40.2535C10.0073 40.1555 8.59193 39.8142 7.35343 39.3152C6.07305 38.7993 4.98721 38.109 3.90469 36.9868C2.82224 35.8644 2.15647 34.7386 1.65895 33.4111C1.17759 32.127 0.848416 30.6595 0.75389 28.5108C0.659133 26.3576 0.636719 25.6701 0.636719 20.1875C0.636719 14.7049 0.659133 14.0174 0.75389 11.8642C0.848416 9.7155 1.17759 8.24799 1.65895 6.96392C2.15647 5.63641 2.82224 4.51061 3.90469 3.38824C4.98721 2.26596 6.07305 1.57568 7.35343 1.05986C8.59193 0.560781 10.0073 0.219488 12.0798 0.121484ZM27.975 3.75834C25.9219 3.66122 25.306 3.64062 20.1072 3.64062C14.9082 3.64062 14.2923 3.66122 12.2392 3.75834C10.3408 3.84808 9.30987 4.17694 8.62377 4.45339C7.71492 4.81959 7.06631 5.25702 6.385 5.96345C5.70362 6.6698 5.28169 7.34225 4.92848 8.28451C4.66183 8.99583 4.34463 10.0647 4.25807 12.0329C4.16439 14.1614 4.14453 14.7999 4.14453 20.19C4.14453 25.58 4.16439 26.2184 4.25807 28.347C4.34463 30.3152 4.66183 31.3841 4.92848 32.0954C5.28169 33.0376 5.70369 33.7101 6.385 34.4164C7.06631 35.1229 7.71492 35.5603 8.62377 35.9265C9.30987 36.2029 10.3408 36.5318 12.2392 36.6215C14.2921 36.7187 14.9078 36.7393 20.1072 36.7393C25.3064 36.7393 25.9222 36.7187 27.975 36.6215C29.8734 36.5318 30.9044 36.2029 31.5905 35.9265C32.4993 35.5603 33.1479 35.1229 33.8292 34.4164C34.5106 33.7101 34.9325 33.0376 35.2858 32.0954C35.5524 31.3841 35.8696 30.3152 35.9562 28.347C36.0498 26.2184 36.0697 25.58 36.0697 20.19C36.0697 14.7999 36.0498 14.1614 35.9562 12.0329C35.8696 10.0647 35.5524 8.99583 35.2858 8.28451C34.9325 7.34225 34.5106 6.6698 33.8292 5.96345C33.1479 5.25702 32.4993 4.81959 31.5905 4.45339C30.9044 4.17694 29.8734 3.84808 27.975 3.75834ZM10.1074 20.188C10.1074 14.4631 14.5839 9.82227 20.106 9.82227C25.628 9.82227 30.1045 14.4631 30.1045 20.188C30.1045 25.9129 25.628 30.5537 20.106 30.5537C14.5839 30.5537 10.1074 25.9129 10.1074 20.188ZM13.6157 20.1856C13.6157 23.9022 16.5215 26.915 20.106 26.915C23.6904 26.915 26.5962 23.9022 26.5962 20.1856C26.5962 16.4689 23.6904 13.4561 20.106 13.4561C16.5215 13.4561 13.6157 16.4689 13.6157 20.1856ZM30.4981 11.834C31.7886 11.834 32.8347 10.7495 32.8347 9.41166C32.8347 8.07381 31.7886 6.98926 30.4981 6.98926C29.2078 6.98926 28.1616 8.07381 28.1616 9.41166C28.1616 10.7495 29.2078 11.834 30.4981 11.834Z" fill="#4035C3"/>
</svg>
