<svg width="36" height="31" viewBox="0 0 36 31" fill="none" xmlns="http://www.w3.org/2000/svg">
<path fill-rule="evenodd" clip-rule="evenodd" d="M17.3025 8.32875L17.378 9.64518L16.1186 9.48398C11.5342 8.86607 7.52915 6.77054 4.12864 3.25112L2.46617 1.50485L2.03796 2.7944C1.13116 5.66904 1.7105 8.70487 3.59968 10.7467C4.60723 11.875 4.38053 12.0362 2.6425 11.3646C2.03796 11.1497 1.50899 10.9885 1.45861 11.0691C1.28229 11.2571 1.88683 13.7019 2.36542 14.6691C3.02033 16.0124 4.35535 17.3288 5.81631 18.1079L7.05056 18.7258L5.5896 18.7527C4.17902 18.7527 4.12864 18.7795 4.27978 19.3437C4.78356 21.09 6.77349 22.9437 8.99012 23.7497L10.5518 24.3139L9.19163 25.1736C7.17651 26.4094 4.80875 27.1079 2.44098 27.1617C1.30748 27.1885 0.375488 27.296 0.375488 27.3766C0.375488 27.6453 3.44854 29.1497 5.23696 29.7408C10.6022 31.4871 16.975 30.7348 21.7609 27.7527C25.1614 25.6303 28.5619 21.4124 30.1488 17.3288C31.0053 15.1527 31.8617 11.1765 31.8617 9.26906C31.8617 8.03323 31.9373 7.87204 33.3478 6.39442C34.1791 5.53471 34.9599 4.59441 35.1111 4.32575C35.363 3.8153 35.3378 3.8153 34.0531 4.27202C31.9121 5.07799 31.6098 4.97053 32.6677 3.76157C33.4486 2.90187 34.3806 1.34365 34.3806 0.886933C34.3806 0.806335 34.0028 0.940664 33.5745 1.18246C33.1211 1.45111 32.1136 1.8541 31.3579 2.09589L29.9977 2.55261L28.7635 1.66604C28.0834 1.18246 27.1262 0.645141 26.6224 0.483946C25.3378 0.107825 23.373 0.161557 22.2143 0.591409C19.0657 1.80037 17.0758 4.9168 17.3025 8.32875Z" fill="#4035C3"/>
</svg>
