
<svg id="Layer_1" data-name="Layer 1" xmlns="http://www.w3.org/2000/svg" viewBox="0 0 1121.6 604.31"><defs><style>.cls-1{opacity:0.6;}.cls-2{fill:#c4c4c4;}</style></defs><g class="cls-1"><path class="cls-2" d="M313.72,302.41a11.28,11.28,0,0,0,.49-3.28l2.16-.26c1.15-.17,1.58-.7,1.51-1.63-3.34-23.45-21.4-42-24.25-65.59,0-.92-.46-1.33-2.82-1.88l-3.62-.74a11.44,11.44,0,0,1,.19-3.26c9.22.65,13.67.86,22.35,1.14a11.5,11.5,0,0,0-1.33,3.34l-3.69.33c-2,.2-2.69.75-2.71,1.68,1.79,23.45,19.52,42.39,21.15,65.78,0,1,.29,1.45,1.62,2l2.19.87a11.05,11.05,0,0,1-.81,3.34A112.55,112.55,0,0,0,313.72,302.41Z" transform="translate(-150.03 -81.35)"/><path class="cls-2" d="M362.89,230.78,359.27,232c-7.71,5.84-3.66,20.27-2.5,28,3.74,16.47,12,37.76,3.6,54l-3.9-1.19c2.86-24.24-21.1-52.82-31.39-73.06l-.4,0c1.29,12.79,6.08,25,10.12,37.09,8.29,26.18,4.39,24.8,6,25.81,1,.65,1.43,1,2.37,1.63a12.65,12.65,0,0,1-1.3,3.55c-4.66-1.21-6.9-1.76-11.25-2.69a11.48,11.48,0,0,0,1.26-3.33l2.48-.54c1.78-.26,6.48,1.29-2.09-24.77-4-11.59-8.63-23.19-10.42-35.39-.67-5.79-1-8.05-2.6-9.34-1.25-.49-1.87-.74-3.12-1.21a11.57,11.57,0,0,1,1.08-3.43c5.76.12,8.59.14,14.17.13,1.32,22.63,20.72,46.88,29.52,67.06l.35.07c-1.38-11.73-4.72-23.11-7.3-34.61-1.41-8.54-.79-20.09-3.38-27.73-1.22-.47-1.83-.69-3.05-1.13a15.31,15.31,0,0,1,1.81-3.86c6.49-.14,9.68-.23,16-.43A20.12,20.12,0,0,0,362.89,230.78Z" transform="translate(-150.03 -81.35)"/><path class="cls-2" d="M400,257.28a69.61,69.61,0,0,1-1.5-15.27c-.06-9.2.21-10.7-7.17-10.83h-.2c-9.75,27.87,8.8,56.25,3.46,84.48-.33,1.34-.13,2,1.62,2.91l3.36,1.72A21.43,21.43,0,0,1,397.7,325c-7.84-2.53-11.62-3.76-18.88-6.09a19.4,19.4,0,0,0,2.18-4.16l3.59.39c1.73.11,2.54-.48,2.82-1.65,5.09-27.5-13.36-55.1-3.89-82.24h-.2c-7.09,0-9.95.74-12,8.72-1.32,5.53-1.47,8.52-1.4,14.62l-3.9-.31c-1.33-8.67-.06-20.57,5.39-27.83,12.66-.43,25.32-.86,38-1-6.42,9.86-5.85,21.15-5.59,32.3Z" transform="translate(-150.03 -81.35)"/><path class="cls-2" d="M451,341.18Q431.9,335.84,413,329.85a24.41,24.41,0,0,0,2.3-4.84l2.93.09c1.87.09,2.83-.57,3.12-1.9,2.8-30.24-9.33-58.84-4.18-89.08.43-1.42.25-2.05-1.64-2.71l-2.23-.8a28,28,0,0,1,2.52-5.31c12.2-.07,24.41.19,36.59.9-5.9,10.77-6.89,23.38-5.76,35.4l-4.26-.59a76.66,76.66,0,0,1-1.52-17.19c.05-10.82,0-11.45-12.1-12l-2.87-.12c-3.67,15.49-2.79,28.39-.58,44.08l1.83.29c4.73.76,6,.41,5.93-4.16-.11-5.12-.13-7.68.16-12.71l3.3.42c1.14,14.78,3.31,29.37,5.05,44.08l-3.22-.7c-.87-4.76-1.41-7.19-2.5-12.1-.94-4.28-1.88-5.79-7.55-6.8l-1.62-.29c2.42,14.63,5.61,29.55,2,44.3l2.76.79c13.25,3.76,16,3.52,18-5.9a71.15,71.15,0,0,0,1-14.61l4.79,1.05C455.56,320.26,456.21,331.24,451,341.18Z" transform="translate(-150.03 -81.35)"/><path class="cls-2" d="M506,337.77c2.31,7.6,2.68,9.16,4.44,10.21l2.38,1.7a31.52,31.52,0,0,1-1.41,6c-6.47-1.29-9.64-2-15.88-3.34a43.54,43.54,0,0,0-.56-12.95c-2.7-14.27-8.21-27.67-13.49-41.12l-5.59-.7c2.42,13.54,5.12,27.08,3.28,40.9-.27,1.68.15,2.47,2.47,3.54l3.18,1.6a31.69,31.69,0,0,1-1.63,5.9c-9.15-2.18-13.59-3.31-22.21-5.62a30.63,30.63,0,0,0,2.21-5.57h3.32c2.13,0,3.17-.75,3.42-2.25,2.12-33.48-11.72-65.06-6.49-98.6.43-1.62.21-2.38-1.89-3.31l-2.47-1.14a34.34,34.34,0,0,1,2.58-6.21c8.26.65,12.49,1.06,21.23,2.16,14.35,2.09,13.31,21.79,13.35,32.45,0,10.87,1.93,25.28-6.8,33.8C495.55,309.3,501.38,323.17,506,337.77ZM477.36,236c-.86-.11-4.35-.37-4.35-.37-5.6,16.85-1.85,35.49,1.09,52.4l5.55,2.26c10.05-4.22,7-17.65,6.52-26.43C485.66,254.53,487.8,240.1,477.36,236Z" transform="translate(-150.03 -81.35)"/><path class="cls-2" d="M567.26,254.6c-1.24.19-1.85.3-3.06.5-13.2,3.12-11.66,26.73-12,36,1.07,22.41,7,50.36-5.37,70.83-4.27-.62-6.38-1-10.56-1.62,5.48-36.31-23.08-75-25.76-111.5.13-3.38-.1-5.41-1.78-6.52l-3.45-2.63a38.42,38.42,0,0,1,2.6-6.88c9.7,1.75,14.71,2.77,25.16,5.2a40.15,40.15,0,0,0-3.13,6.81c-1.75.16-2.61.24-4.33.42-3.86.33-5.75,3-2.83,20.55,6,27.35,19.25,52.64,24.38,80.12l1.16.19c3.71-19.08-.21-39.68-1-58.86.18-8.35,6-30-.28-37.63l-2.5-1.24a38.19,38.19,0,0,1,2.59-6.91c9,2.34,13.68,3.64,23.34,6.54A37.41,37.41,0,0,0,567.26,254.6Z" transform="translate(-150.03 -81.35)"/><path class="cls-2" d="M636.7,369c-18.9-.45-37.66-1.48-56.48-3.14a27.74,27.74,0,0,0,1.93-5.54l4.24-.34c2.71-.19,3.94-1,4.09-2.44,1.92-32.81-16.3-62.06-11.6-95.39.43-1.62,0-2.52-3-4.22l-3.54-2a35.3,35.3,0,0,1,2.55-6.54c19.66,6,39,13.05,58.14,20.39-5.81,12.34-6.55,18.08-5.83,31.69l-6.81-1.92c-1.95-6.65-2.69-10-3.07-16.42,1.08-12.38-11.21-15.83-20.9-18.65-1.81-.6-2.71-.89-4.51-1.47-5.3,14.56-2,31.4,1.67,45.88l2.82.63c7.3,1.62,9.27,1.54,9.23-2.72a88.8,88.8,0,0,1,.24-11.79l5.22,1.43c1.25,13.81,4.91,27.19,7.57,40.75l-4.92-.75c-1.45-4.51-2.29-6.83-4-11.53-1.45-4.1-2.9-5.65-11.6-7.41l-2.5-.51c3.81,14.5,8.64,29.35,6.47,44.55l4.13.34c8.32.81,23,3.63,25.27-7.5a53.62,53.62,0,0,0,.68-12.77l7.31,1C641.46,354.49,642.08,360.16,636.7,369Z" transform="translate(-150.03 -81.35)"/><path class="cls-2" d="M699.21,319c-1.82-1-2.72-1.42-4.52-2.33-3.2-1.78-8.54-2.21-5.12,20.32,2.53,13.2,8.47,29.16,2.76,42.32-2-.83-3-1.22-5-2-3.06-28.11-26.8-53.94-36.15-80.39l-.5-.24c-.82,14.06,3.64,27.38,7.46,40.69,1.93,7.64,2.21,21.1,6.47,27.7,1.41.73,2.11,1.11,3.5,1.86a16.1,16.1,0,0,1-1.22,3.9,92.07,92.07,0,0,0-17.6-1.79,17.67,17.67,0,0,0,1.92-4.25c1.57-.42,2.34-.61,3.86-1,7-6.56,1.75-19.05-.3-27.36-3.93-12.84-8.09-26-7.81-39.6.35-7,.65-10.69-.71-13.36l-3-3.2a27.17,27.17,0,0,1,2.86-5.35,89,89,0,0,1,15,8.45c-.6,29.8,17.34,53,29.74,78.91l.43.22c-1.25-9.43-3.73-18.65-5.45-28-3.78-23.14.45-23.75-2.27-26.77-1.56-1.81-2.33-2.72-3.85-4.51a22.51,22.51,0,0,1,2.07-4.32c7.76,6.36,11.71,9.84,19.7,16.76A19.91,19.91,0,0,0,699.21,319Z" transform="translate(-150.03 -81.35)"/><path class="cls-2" d="M746.55,372.11c0-3.66,0-5.46.32-8.88.25-5.53-.6-7-10.31-14l-.26-.19c-7,14.13-3.6,31-7.44,45.86-.25.7,0,1.24,1.79,2.85,1.35,1.19,2,1.8,3.36,3a18,18,0,0,1-1,2.45,176.9,176.9,0,0,0-19.37-13.57,13.37,13.37,0,0,0,1.39-2.41c1.51.79,2.26,1.19,3.75,2,1.78.93,2.53.92,2.73.26,3.1-15.6-2.19-33.06,4.81-47.92l-.27-.2c-9.31-7.18-12.31-8.67-15-4.38a25.62,25.62,0,0,0-3.12,8.26l-5.15-3.73c.27-8.55.86-12.76,6.44-19.14,15.44,13.17,31,26.49,48.74,36.45-3.64,5.34-4.72,8.89-6.64,16.12C749.39,373.85,748.44,373.28,746.55,372.11Z" transform="translate(-150.03 -81.35)"/><path class="cls-2" d="M747.3,415.18c.6-.86.89-1.32,1.46-2.28l3.17,2.26c1.7,1.18,2.45,1.21,2.76.52,6.12-14.9,9.85-30.74,16.61-45.39.34-.71,0-1.15-2.53-2.52-1.53-.79-2.3-1.21-3.85-2.09.48-1.12.72-1.67,1.25-2.71,9.83,4.4,11,5.55,24.39,6.12l-1.69,3.14c-2.29,0-2.67,0-4.39,0-2.38-.09-3.28.22-3.62,1-7,16-12.59,32.51-19.31,48.59-.37.84-.08,1.53,1.55,3.38,1.08,1.22,1.54,1.82,2.71,3.08-.48,1.38-.71,2-1.16,3.36C757.61,424.73,754.34,421.45,747.3,415.18Z" transform="translate(-150.03 -81.35)"/><path class="cls-2" d="M789.61,462.46c-11.22-15.91-10.84-39.85-3-57.36,7.09-15.81,29.27-35.79,47-22.91,19.08,13.85,7.8,47.51-1.57,63.19C825.63,456.12,803.66,482.37,789.61,462.46Zm41-76c-12.62-10.11-28.6,13.48-33.3,23-6.15,12.52-15.12,36.2-4.79,48.69C803.36,471.32,819.92,445,824,437.51,830.46,425.75,843.79,397,830.59,386.46Z" transform="translate(-150.03 -81.35)"/><path class="cls-2" d="M885.25,480.33l-2.33-3.14c-1.62-2.41-2.61-3.07-12.93,17.73-7,14.21-13.83,28.56-22,42.15-1.65-1.94-2.47-2.93-4.11-4.92,3.77-30.67,8.83-61.07,14.54-91.44l-.28-.52c-6.32,11.08-12.33,22.33-18.41,33.54-3.72,6.86-13.42,18.93-11.55,27.56.85,2,1.28,3,2.14,5-.92,1.71-1.38,2.56-2.29,4.2-5.2-6.92-7.78-10.44-12.95-17.45,1.08-1.53,1.63-2.32,2.73-3.92l3.3,2.43c7.91-1.23,12.47-14.44,16.34-21.35,5.87-10.81,11.69-21.65,17.77-32.35,3.22-5.65,4.08-9.36,3.65-13-.6-2.13-.91-3.19-1.55-5.29,1-1.8,1.45-2.68,2.41-4.39a174.32,174.32,0,0,1,9,17.23c-5.74,28.09-10.67,56.24-14.37,84.68l.31.45c4.56-8.71,8.92-17.53,13.31-26.32,10.62-21.09,11-21.77,10.06-25.56-.55-2.26-.82-3.4-1.36-5.68.86-1.63,1.29-2.43,2.15-4,3.49,8.67,5.14,13,8.54,21.2C886.52,478.4,886.09,479,885.25,480.33Z" transform="translate(-150.03 -81.35)"/><path class="cls-2" d="M871.34,562.3a40.27,40.27,0,0,1-10-13.61c3.45-6.87,5.14-10.85,8.56-19,1.12,1.48,1.69,2.21,2.82,3.65-1.74,7.13-2.57,10.58-4.18,16.87a24.62,24.62,0,0,0,5.74,9c5.28,4.7,10,2.41,12.07-2.51,3.14-7.61.17-13.94-3.1-22.32-4-10.29-5.12-21.83-.17-32.14,4.46-9.29,11.34-10.34,17.51.11,2.36,4,3.55,6.59,5.05,9.49,1.18.82,1.77,1.21,3,1.95A132.8,132.8,0,0,0,901,531.29c-1.1-1.1-1.64-1.68-2.71-2.87,1.24-5.91,1.91-8.83,3.39-14.26a38.07,38.07,0,0,0-3.76-8.62c-3.18-5.29-6.67-4.58-8.9.1-3.47,7.31-1.7,15.08,1.24,22.74,3.56,9.29,7.25,19.62,3.55,29.66C890.39,567.33,880.92,570.67,871.34,562.3Z" transform="translate(-150.03 -81.35)"/><path class="cls-2" d="M909,555.07c-2.63-1.42-3.54-6-2.36-9.7s4.08-5.42,6.6-4,3.62,5.21,2.52,9S911.72,556.52,909,555.07Zm-9.59,27.08c-2.85-1.48-3.78-5.32-2.48-8.49s4.47-4.86,7.22-3.41,4,5.28,2.71,8.57S902.35,583.66,899.43,582.15Z" transform="translate(-150.03 -81.35)"/><path class="cls-2" d="M962.45,601.64a167.76,167.76,0,0,0-25.25-8.79c.69-1.29,1-2,1.7-3.33l4.64.73c2.91.5,4.19.24,4.52-.69,6.65-18.9,10.6-38.62,17.19-57.55.33-.92-.14-1.32-3.83-1.51-1.76-.1-2.66-.14-4.52-.2.38-1.4.57-2.07,1-3.38,13-1.18,18.29-1.37,27.2-1.18,24.18-1,18.75,32.55,16.2,46C997.39,592.07,988,614.09,962.45,601.64ZM981.12,530c-1.17,0-1.77-.06-3-.08-6.92,21.12-12,42.77-18.67,63.95,2.56,1.67,3.78,2.53,6.15,4.28,17.25,7.48,24.71-13.66,27.36-26.52C995.3,560.4,1001.82,529.47,981.12,530Z" transform="translate(-150.03 -81.35)"/><path class="cls-2" d="M998.26,622.93c.46-1.57.7-2.41,1.16-4.15,1.19.67,1.77,1,2.91,1.67,1.52.85,2.14.52,2.36-.65,4.48-25.84,7.9-51.83,12.41-77.67.22-1.16.09-1.82-1.08-3.12-.72-.73-1.09-1.09-1.84-1.79.34-1.81.51-2.68.86-4.32,4.82,2.71,6.65,4.36,10.64,8-.3,1.6-.45,2.46-.76,4.27-.74-.36-1.11-.54-1.86-.88-1-.45-1.46.07-1.64,1.26-3.93,26.54-7,53.2-10.91,79.74-.21,1.32.07,2.15,1.44,3.91.92,1.17,1.37,1.76,2.27,2.92-.21,1.92-.32,2.84-.51,4.55A181.47,181.47,0,0,0,998.26,622.93Z" transform="translate(-150.03 -81.35)"/><path class="cls-2" d="M1028.56,653c-3.63-2.92-6.08-7.25-8.49-11.9.87-9.29,1.66-18.59,2.44-27.9l2.33,2.34c-.15,10.53-.2,15.66-.15,24.16,1.37,3.61,3.41,7,5,8.51,4.06,3.72,6.71-1.17,7.56-9.79,1-10.63-1.32-20.92-5.19-30.66-5-12.66-6.1-26.13-4.7-39.83,1.5-14.67,4.83-22.16,11.75-16.93a57.35,57.35,0,0,1,6.56,6c1.26.16,1.91.25,3.27.47-1,9.68-1.94,19.37-2.89,29.06-1.23-.77-1.82-1.15-3-1.92.06-9.88.07-14.55,0-22.16a19.36,19.36,0,0,0-5-6.31c-3.48-2.67-5.41,1.47-6.17,8.92a55,55,0,0,0,4.55,27.34c6,14,8.87,28.85,6.71,43.57C1042.05,643.51,1039.07,661.43,1028.56,653Z" transform="translate(-150.03 -81.35)"/><path class="cls-2" d="M1083.65,668.88c.57,6.31,1.13,7.3,2.72,8.09.85.51,1.29.76,2.16,1.25-.5,1.83-.74,2.68-1.22,4.22a84.66,84.66,0,0,1-14.36-3.11c0-3.25,0-5.23,0-9.69-.12-12.79-.75-25.56-1.4-38.33-2.56-.75-3.78-1.14-6.12-1.93-2.08,12.21-4.17,24.43-6.57,36.58-.27,1.34.08,2.08,2,3.41,1,.77,1.57,1.15,2.64,1.9-.37,1.82-.55,2.66-.9,4.16a82.1,82.1,0,0,1-16.42-9.37c.27-1.51.42-2.35.73-4.15.91.36,1.37.54,2.32.88,1.51.58,2.25.19,2.43-1,4.35-29.29,7.9-58.69,12.27-88,.18-1.2-.32-1.89-2.81-3.48-1.19-.77-1.76-1.15-2.89-1.92.15-1.87.21-2.74.33-4.32,8.84,4.1,18.07,6.81,27.39,9.56,14.33,4.5,20.55,11.34,15.88,26.9-3.17,10.58-8.35,23.54-18.86,29.56C1083,643,1083,656,1083.65,668.88Zm-2.57-91.66-6-1.68c-3,14.9-5.51,29.9-8.08,44.87,2.19,1.36,3.33,2,5.69,3.34,11.77,1,16.53-13.82,18.94-22.06C1094.6,591.52,1094.06,579.35,1081.08,577.22Z" transform="translate(-150.03 -81.35)"/><path class="cls-2" d="M1167.42,596.41c-1.6.16-2.4.25-4,.43-7.67,4.46-7.13,21-8.05,28.48-1,9.54-1.83,19.1-2.92,28.63-1.49,17-14.38,30.84-31.41,31.68-19.62,1-16.77-18.27-14.44-31.58,4.7-21.5,8.49-43.39,14.9-64.46.38-1.2.09-1.79-2-2.83l-2.6-1.28c.54-1.82.81-2.66,1.34-4.18,8.1,1.88,12.16,2.82,20.3,4.67-.72,1.49-1.07,2.31-1.76,4.08l-3.2-.06c-2.12-.08-3,.53-3.35,1.71-5.6,19-8.67,38.73-12.45,58.13-1.36,9-6.45,30.29,9.36,29,13.45-1.1,20.61-14.48,21.27-26.89,1.31-10.49,1.81-16.25,3.08-26.91,1.14-9,5.31-21.81,1.87-30.16l-3.6-2c.46-1.76.7-2.59,1.21-4.1,7.17,1.57,10.77,2.34,18,3.83A36.64,36.64,0,0,0,1167.42,596.41Z" transform="translate(-150.03 -81.35)"/><path class="cls-2" d="M1195.43,645.79a50.05,50.05,0,0,1-7.26-.26c.33,11.24.52,16.88-.93,25.53-.19,1.12.46,1.44,3.48,1.35l5.63-.26a25.83,25.83,0,0,1-.6,3.54c-10.11,1.46-20.22,2.9-30.36,4.19a34.32,34.32,0,0,0,1.5-3.89l4.27-1c2.73-.66,3.95-1.46,4.15-2.5,3.94-23.56.17-47.66,4.28-71.21.2-1-.17-1.54-2.5-2.42l-2.77-1.09a33.3,33.3,0,0,1,1-3.85c8.35,1.68,12.55,2.48,21,4,11.16,1.46,17.57,10.92,19.09,21C1217.33,632.08,1209.19,645,1195.43,645.79Zm-1-44.09-5.47-.91c-2.34,12.64-1.44,25.57-1,38.32a18.75,18.75,0,0,0,6.63.91c7.52-.16,11.5-8.16,10.56-19.58S1201.23,602.83,1194.42,601.7Z" transform="translate(-150.03 -81.35)"/><path class="cls-2" d="M1265.75,626.25a53.83,53.83,0,0,1-4.34-9.11c-2.24-5.63-3.08-6.77-12-7.81l-.24,0c-.47,18.26,11.43,35.91,14.39,53.73,0,.92.53,1.24,3.14,1.45,2,.12,3,.2,4.89.37a15,15,0,0,1-.35,3.23,270.36,270.36,0,0,0-28.16,1.54,17.32,17.32,0,0,0,.91-3.27c2.19-.39,3.28-.57,5.42-.92,2.55-.48,3.44-1.08,3.46-1.92-2.71-19-11.11-36.08-12.83-55.24l-.24,0c-8.48-1-10.94-.83-11.9,4.82a56.46,56.46,0,0,0-.52,10.51l-5.21-.32c-1.15-9.59-1.58-14.19,1-21,15,2.05,29.89,3.74,44.93,5-2.35,7.09-1,11.13,2.13,19.34Z" transform="translate(-150.03 -81.35)"/></g><g class="cls-1"><path class="cls-2" d="M150,152.71c.14-.72.22-1.05.38-1.65.92.28,1.38.42,2.3.68,1.22.33,1.68.22,1.75-.12,1.56-7.72,3.22-3.51,4.76-11.39.07-.35-.18-.55-1.6-.85l-2.15-.44c0-.63.07-1,.1-1.74,5.34.53,8.05.73,13.52,1-.15.76-.23,1.11-.4,1.77l-2.37.09c-1.3.05-1.72.28-1.79.64-1.58,8.1-3.28,4.7-4.86,12.73-.08.39.21.68,1.53,1.22l2.19.89c-.06.67-.08,1-.12,1.8A114,114,0,0,1,150,152.71Z" transform="translate(-150.03 -81.35)"/><path class="cls-2" d="M207,139.48l-2.46.62c-1.76.38-2.11,1.43-4.51,8.1-2,5.68-3.35,7.76-4.65,15.35l-3.35-.3c-5.43-11-7-12-12.32-19.69h-.29a44.14,44.14,0,0,1-2.89,7.57c-2,5-1.62,6.56-.09,7.14l2.3.9c-.06.69-.09,1.05-.15,1.8-4.33-.79-6.48-1.25-10.78-2.37.15-.74.23-1.09.4-1.73l2.27.1c1.63.11,1.95-1.37,4-6.15a42.32,42.32,0,0,0,2.74-6.9,2.38,2.38,0,0,0-1.21-3.15l-2.18-.56c.06-.67.08-1,.13-1.79,3.73.12,5.61.15,9.39.16,5.34,9.69,7,10,11.28,17.86l.29,0c1.09-3.53,1.75-4.95,2.93-8.22,2.36-6.52,2-7.58.28-7.77l-2.44-.34c.08-.68.11-1,.17-1.76,4.63-.17,7-.3,11.67-.62C207.26,138.45,207.16,138.8,207,139.48Z" transform="translate(-150.03 -81.35)"/><path class="cls-2" d="M235,143.7c.13-1.67.19-2.49.27-4.08,0-2.51-.82-2.87-6.53-2.16l-.15,0c-2.53,9.33-5.13,14.41-7.78,23.78-.12.45.12.63,1.5.74l2.63.17c-.13.65-.19,1-.3,1.61-5.85.17-8.75.2-14.51.1.2-.68.31-1,.53-1.68l2.71-.18c1.29-.12,1.8-.39,1.91-.79,2.54-9.33,5-13.66,7.46-23l-.16,0c-5.42.63-6.73,1.12-8.29,3.63-1,1.73-1.53,2.57-2.59,4.2l-3,.19a56.71,56.71,0,0,0,3.3-8.84c9.65-.76,19.36-1.92,28.91-3.43-1,3.41-1.6,5.37-3,9.34Z" transform="translate(-150.03 -81.35)"/><path class="cls-2" d="M261.88,161.59c-10.62.77-15.81,1.2-26,1.73l.63-1.58,2-.32c1.29-.19,1.87-.48,2-.89,2.94-9.12,5.65-16.44,8.56-25.51.13-.41-.13-.52-1.7-.41l-1.87.11c.14-.63.2-.94.32-1.54,9.2-1.49,18.4-3.29,27.49-5.36-1.1,2.93-1.83,5.13-3.33,9.74l-3.07.59c.2-2,.29-2.93.42-4.65.1-2.79-.75-2.54-9.9-.75l-2.17.42c-1.4,4.26-2.36,7.07-4.18,12.48l1.34-.18c3.47-.49,4.52-.82,5.45-2.26,1-1.61,1.48-2.42,2.46-4l2.42-.45c-2.17,5.21-3.37,8.22-5.53,13.41l-2.27.22c.28-1.38.43-2.09.73-3.51.26-1.24-.08-1.57-4.2-1.06l-1.19.15c-1.9,5.62-2.9,8.57-4.37,13l1.92-.12c9.19-.59,10.28-.83,12.29-3.81,1-1.73,1.6-2.67,2.7-4.63l3.28-.33C264.23,156.59,263.34,158.7,261.88,161.59Z" transform="translate(-150.03 -81.35)"/><path class="cls-2" d="M296.45,154.88c.81,2.2,1.28,2.5,2.36,2.64l1.47.28c-.16.7-.23,1-.37,1.57-3.9.12-5.83.2-9.67.39a18.87,18.87,0,0,1-.88-3.24,105.78,105.78,0,0,1-2.07-12.41l-3.79.68c-1.79,5.93-2.71,9-4.16,13.12-.17.49.13.64,1.62.67l2.05.1-.42,1.5c-5.73.34-8.55.54-14.15.93.28-.55.42-.86.72-1.51l2.11-.36c1.36-.22,2-.53,2.13-1,3.41-10.13,6.4-20.4,9.82-30.53.15-.43-.11-.52-1.71-.29l-1.91.26.39-1.44c5.95-1.41,8.93-2.17,14.92-3.76,8.73-2.32,11.9-1.51,10,4.82a25.08,25.08,0,0,1-11.37,14.21A136.13,136.13,0,0,0,296.45,154.88Zm-3.88-30.21-3,.82c-1.71,4.71-2.89,8.76-5.11,16.09l3.41-.16c4.39-1.19,8.16-5.15,9.92-11C299.61,124.29,297.64,123.15,292.57,124.67Z" transform="translate(-150.03 -81.35)"/><path class="cls-2" d="M347.69,107.78l-1.54.9c-2.71,1.53-3.2.64-10.27,18.34-4.32,10.87-8.09,22.64-15,32.22-2.48-.05-3.71-.06-6.16-.06-.81-13,.22-26,.21-38.95,0-.9-.3-1.25-1.44-1.1-1,.1-1.44.15-2.4.27.18-.7.27-1,.43-1.55,6.22-1.85,9.35-2.81,15.61-4.84-.29.61-.44,1-.74,1.76l-2.48,1.09c-2.24,1-2,1-2.17,6.86-.27,10.44-.74,20.89-.71,31.33h.68c4.65-8.94,8.21-18.49,11.94-27.83,5.7-14.39,5.35-14.95,2.83-14.53L335,112c.17-.79.25-1.14.39-1.74,5.19-1.75,7.79-2.66,13-4.53C348.11,106.45,348,106.86,347.69,107.78Z" transform="translate(-150.03 -81.35)"/><path class="cls-2" d="M371.14,164c-10.39-1.7-20.71-3.26-31.22-4,.25-.69.39-1.09.67-2l2.36-.17c1.51-.1,2.18-.44,2.31-1.08,3.22-16.64,5.65-33.41,8.95-50,.13-.62-.15-.76-1.81-.42l-2,.41c.14-.86.2-1.25.32-1.89q14.4-5.2,28.59-11c-.6,4.69-1.13,9.35-2.26,19.32l-3.33.75c0-4.34,0-6.37,0-9.79-.19-5.59-1.09-4.93-10.7-1.49l-2.28.81c-1.26,6.58-2.21,12.84-4,24.46l1.49-.22c3.86-.57,5-1.1,5.95-4.15,1-3.4,1.49-5.09,2.44-8.33l2.63-.61c-1.69,9.61-3.34,19.22-5.08,28.82l-2.6,0c.21-3,.32-4.51.55-7.61.21-2.72-.2-3.57-4.83-3.07l-1.33.14C354,145,353,151.66,351.72,158.59l2.27.22c10.91,1.07,12.2,1.51,14.15-4.15,1-3.31,1.5-5.23,2.55-9.32l3.78.12C372.94,155.08,372.21,159.49,371.14,164Z" transform="translate(-150.03 -81.35)"/><path class="cls-2" d="M403.21,90.19l-1.65,1.4c-1.2.89-.67,0-.87,24.44-.15,16.06-1,32.62,2.7,48.37-1.15.31-1.73.45-2.89.72-10.71-18.33-11.25-42.5-13.78-63.07l-.15,0c-.45,11.91-1.2,23.8-1.82,35.71-1.31,25.54-.45,23.69,1,24.21.84.35,1.27.52,2.14.83.15,1.38.24,2,.44,3.2a44.51,44.51,0,0,1-10.2-.66c.11-1,.18-1.54.32-2.78.82-.24,1.22-.38,2-.68,1.44-.44,1.3,1.54,2.88-24,.74-11.44,1.53-22.87,2.15-34.31.28-5.41,0-7.26-.43-8.24-.33-.33-.48-.49-.77-.8.07-1.22.1-1.77.15-2.73l3.51-1.13c4.74,18.64,6.73,37.89,11.07,56.64l.22-.07c-.47-10.24-.33-20.56-.16-30.8.21-24.58-.83-23.5-2.07-23.84L395.21,92c-.19-1.42-.29-2.09-.53-3.33,2.89-.81,4.52-1.24,8.08-2.08C403,88,403.06,88.69,403.21,90.19Z" transform="translate(-150.03 -81.35)"/><path class="cls-2" d="M429.75,104.05a96.76,96.76,0,0,0-.45-9.83c-.68-6.13-2-7.39-7.37-6.79l-.14,0c1.62,20.61-2.12,40.94,0,61.6.21,1.14.54,1.48,1.73,1.28l2.24-.48c.42,1.67.66,2.5,1.21,4.14-4.62,2.22-6.92,3.34-11.6,5.31-.42-1.58-.6-2.39-.92-4.05.8-.6,1.2-.91,2-1.53a2.59,2.59,0,0,0,.95-2.67c-2.28-21,.92-41.85-1-62.82l-.14,0c-4.84.77-5.53,1.59-5.95,8.12-.23,4.52-.45,6.93-.92,11.91l-2.45.58c.33-10.39.5-15.37-.73-23.07a162.2,162.2,0,0,1,26.36-3.92c1.3,8.4.82,12.79-.18,21.73C431.36,103.78,430.82,103.86,429.75,104.05Z" transform="translate(-150.03 -81.35)"/><path class="cls-2" d="M435.87,149.75a43.64,43.64,0,0,1-1-4.35l1.79-1.47a2.7,2.7,0,0,0,1-2.69c-.79-18.33,3.62-35.5,5.1-53.66,0-.94-.34-1.35-2-1.72-1-.18-1.52-.27-2.53-.43-.16-1.55-.27-2.32-.55-3.86a129.46,129.46,0,0,1,15.87.05,35.53,35.53,0,0,1,0,3.86l-2.72.39c-1.49.26-1.92.88-1.95,1.8-2.06,17.6-7.17,33.89-6.73,51.74.16,1.14.53,1.48,1.74,1.36.81-.08,1.21-.12,2-.18a42.22,42.22,0,0,0,1.12,4.31C442.53,146.65,440.31,147.67,435.87,149.75Z" transform="translate(-150.03 -81.35)"/><path class="cls-2" d="M465.56,142.13c-10.06,2.05-15.84-19.51-12.14-30,3.57-10.11,14-30.86,25.71-28s15.43,20.12,6.44,30.19C479,121.69,472.61,140.69,465.56,142.13ZM478.79,88.5c-7.5-1-15,13.72-18.94,22.22s.19,27,4.65,26.22c4-.68,8.87-16.55,15-23.37C485.41,107,487,89.6,478.79,88.5Z" transform="translate(-150.03 -81.35)"/><path class="cls-2" d="M532.12,111.3l-2.48-.25c-1.78-.28-.92.07-8,15.94-5.21,10.83-10.43,22.69-8.32,35-1.43-1.16-2.14-1.74-3.56-2.86-6.44-19.18-5.52-33.67-5.15-53.5l-.28-.12c-3.12,8-6.61,10.94-10.59,18.51-6.89,13.1-3.42,16-1.71,17.61,1,1,1.54,1.51,2.58,2.55a29.73,29.73,0,0,0,.78,3.79,57.34,57.34,0,0,0-11.06-5.88,28.35,28.35,0,0,1-.61-3.93c.84,0,1.26,0,2.12,0,1.57.21-1.18-2.42,5.78-15.3,3.83-7.11,7.12-9.86,10.35-17.33,1.48-3.42,1.13-5.57.18-7.06l-1.89-1.8a24.38,24.38,0,0,0,.13-3.46c3.33,1.47,5.06,2.28,8.6,3.95,4,15.41,1.14,32.32,2.19,48.11l.31.23c2-8.19,4.3-12.13,7.87-19.88,7.13-15.47,5.51-16.29,3.88-17.59l-2.36-2a21.83,21.83,0,0,0,.1-3.14c4.53,2.17,6.85,3.27,11.53,5.41A24,24,0,0,1,532.12,111.3Z" transform="translate(-150.03 -81.35)"/><path class="cls-2" d="M533.3,178.79a52.69,52.69,0,0,1-9.82-10.18c-.85-6.88-.15-10.66,1.75-18.15l2.79,2a60.5,60.5,0,0,0-.18,15.77,27,27,0,0,0,5.86,7c4.42,3.28,6.76,0,7.9-5.71,1.76-8.8-.61-14.2-4-20.24-4-7-6.33-13.75-2.82-24.12,2.86-8.42,6.86-13.68,14.49-10.85a33.68,33.68,0,0,1,6.58,3.34l2.72-.16c-.18,5.78-1.34,10.11-3.88,19.25-1.07-.4-1.6-.61-2.67-1a91.27,91.27,0,0,0,1.41-14.05,12.11,12.11,0,0,0-5-3.66c-3.83-1.46-6.27,1.3-7.55,5.82-2,7,.22,11.6,3.36,16.66,5.16,8.36,6.05,18.49,3.66,28C545,179.57,541,184.62,533.3,178.79Z" transform="translate(-150.03 -81.35)"/><path class="cls-2" d="M561,159.18c-2.12-.76-2.62-5.84-1.34-10.62s3.93-8.23,6-7.71,2.69,4.78,1.41,9.93S563.15,160,561,159.18Zm-6.24,33.32c-2-.93-3.75-4.28-3.34-7.88s2.83-6.45,5-5.48,3,5.3,2.46,9S556.83,193.45,554.74,192.5Z" transform="translate(-150.03 -81.35)"/><path class="cls-2" d="M587.39,195.69c-4.56-.13-6.85-.19-11.52-.24.24-1,.37-1.59.67-2.84l2-.48c1.27-.29,1.85-.84,2-1.71,4.11-21.24,8.07-42.51,12.3-63.73.17-.83,0-1.08-1.28-1.14-.6,0-.91-.07-1.52-.13.18-1.2.25-1.74.38-2.7A31.54,31.54,0,0,0,601,119c14.53-9.32,9.55,26.92,9.3,30.32C609.27,162.3,607.42,195.2,587.39,195.69Zm11.73-72.76c-.5.22-.75.32-1.26.52-4.57,22.31-7.87,44.87-12,67.26,1.26.54,1.89.82,3.13,1.37,13.39-3.5,14.65-26.87,15.75-37.06C605.3,150,611.06,120.82,599.12,122.93Z" transform="translate(-150.03 -81.35)"/><path class="cls-2" d="M609.72,196.29c.49-1.74.71-2.65,1.13-4.55,1-.3,1.44-.45,2.4-.77a2.92,2.92,0,0,0,2-2.56c3.12-25.79,1.72-52.18,6.06-77.81.21-1.12.09-1.45-1-1.09-.66.27-1,.41-1.64.7.33-1.65.51-2.43.91-3.89a114.47,114.47,0,0,1,11.16-8c-.59,1.76-.86,2.68-1.34,4.6-.82.71-1.23,1.07-2.05,1.8a5.26,5.26,0,0,0-1.81,3.15c-3.44,26.64-2,53.51-5.07,80.19-.23,1.46,0,2,1.27,2.34l2.11.57c-.35,2.16-.56,3.22-1,5.27C617.6,196.39,615,196.37,609.72,196.29Z" transform="translate(-150.03 -81.35)"/><path class="cls-2" d="M636.88,197.87c-3.24.69-5.54-1.46-7.57-3.85a135.53,135.53,0,0,0,2.49-30.15l2.47-.52c.73,9.72,1,14.57.43,23.63,1.25,2.23,3.09,3.68,4.75,3.43,3.95-.6,8-9.51,8.46-18.74.68-14.3-3.39-18.61-7.54-23-7.7-8.2-8.19-19-8.22-29.47,0-9.92,4-25.63,13.84-28.77,2.31-.74,3.83.12,5.44.93,1.32-.78,2-1.15,3.28-1.86-3.76,9.58-3.59,19.72-3.65,29.8-1.39.08-2.1.14-3.51.26-1-8.67-1.11-12.87-.13-20.43-1.14-1.89-2.54-2.46-4-2.13-3.33.72-6.3,7.23-6.9,14.67-.94,11.62,2.24,15.27,6,19.65,8.1,9.4,13.69,21,14.29,33.16C657.35,176,648.19,195.46,636.88,197.87Z" transform="translate(-150.03 -81.35)"/><path class="cls-2" d="M701.42,184.33c2.4,6.91,3,8.28,4.26,9.31.7.66,1,1,1.72,1.65.23,2.16.31,3.19.41,5.12a76,76,0,0,0-10.9-3.34c-.88-4.22-1.47-6.56-2.84-11.49-3.66-12.4-8-24.58-12.53-36.68-1.78-.17-2.68-.24-4.53-.34,2.2,12.22,4.1,24.58,4.3,37,0,1.57.54,2.23,2.69,3,1.19.47,1.78.71,2.93,1.2.07,2.24.08,3.32,0,5.39a122.11,122.11,0,0,0-22.19-1.41c.53-2.23.75-3.37,1.11-5.7,1.41-.3,2.11-.45,3.47-.72,2.17-.4,3-1.28,3.09-2.71-.56-28.58-9.14-56.67-8.3-85.21.07-1.24-.22-1.8-1.85-2.42l-1.93-.75a36.37,36.37,0,0,1,.76-4.74,96.47,96.47,0,0,1,14.26,1.68c10.46,2.2,13.13,15.75,14.47,24.29s3.55,20.94-2.36,28.58C692.36,158.72,697.2,171.41,701.42,184.33ZM673.4,98c-.6-.08-3-.25-3-.25-.19,14.32,2.66,28.42,5.13,42.47,1.79.64,2.68,1,4.44,1.69,4.77-.46,5.9-8,3.42-22.56C680.85,104.34,678.39,98.1,673.4,98Z" transform="translate(-150.03 -81.35)"/><path class="cls-2" d="M729.23,115.21c-1,.05-1.42.08-2.36.16-4.75,7.35.47,25.19,1.4,33.17,1.44,11.83,2.91,23.66,4.3,35.5.24,2.9,4.47,34.73-6.41,28.12-11.36-6.9-13.19-28.23-15.71-41-4-21.59-9-43.16-11.58-65-.12-1.19-.48-1.79-2.12-2.78-.81-.49-1.22-.74-2-1.21-.19-1.85-.26-2.71-.33-4.29,5.61,1.72,8.43,2.7,14.05,4.82,0,1.46,0,2.28.1,4.06l-2-.14c-1.35-.12-1.7.49-1.57,1.69,2.37,20.28,6.61,40.36,10.22,60.45,2.27,11.78,5,34.13,12.08,36.94,4.93,2,3.61-20.47,3.13-25.67q-2.08-16.32-4.23-32.64c-1.35-10.5-.6-25.3-6-34.87-1.1-.95-1.66-1.42-2.76-2.33-.2-1.82-.29-2.65-.4-4.13,4.91,2,7.37,3.08,12.25,5.26C729.2,112.66,729.2,113.46,729.23,115.21Z" transform="translate(-150.03 -81.35)"/><path class="cls-2" d="M749.17,189.63c-.86-.42-2-2.1-2.95-3.31.63,12.27,1.23,24.54,1.52,36.82a5.89,5.89,0,0,0,1.2,3.66l1.71,2.58c0,2,0,2.86,0,4.41-3.49-3.94-5.23-6-9-9.89,0-1.57,0-2.45,0-4.37l1.28.71c.82.48,1.12,0,1.07-1.29-1.47-32.42-5-64.71-6.35-97.14,0-1.21-.36-1.84-2-3.07l-1.93-1.48c-.13-1.81-.18-2.62-.26-4,5.62,2.56,8.41,3.88,13.94,6.51,11.4,5.43,12.61,20.8,12,31.76C759.19,156.06,756.9,193.41,749.17,189.63Zm-2.29-65.76c-1.39-.67-2.1-1-3.5-1.66.25,18.14,1.41,36.29,2.34,54.41,1,1.79,2.45,3.74,2.91,3.73,3.35,0,5.21-20.14,5.14-28.15C753.69,142.88,754.57,131,746.88,123.87Z" transform="translate(-150.03 -81.35)"/><path class="cls-2" d="M786.53,172c.21-8.34.3-12.27.4-18.81.05-10.4-.71-11-6-13.42l-.14-.06c-3.14,36-4.57,72.18-7.39,108.22a3.28,3.28,0,0,0,1.18,3.17c.86.82,1.29,1.22,2.17,2-.11,1.78-.16,2.54-.24,3.77a57.15,57.15,0,0,1-11.27-8.08c.17-1.3.26-2.09.43-3.88.79.43,1.18.63,2,1,1,.39,1.35-.11,1.45-1.38,2.47-35.72,3.33-71.56,6.19-107.25l-.15-.06c-5.13-2.29-6.47-3-7.74,6.11-.81,6.34-1.21,10.22-1.95,18.39l-2.76-1.54c.52-10.72.82-21.55,2.16-32.21,8.87,4.26,17.9,8.38,27,12-1,11-1.83,22-2.69,33C788.12,172.66,787.59,172.45,786.53,172Z" transform="translate(-150.03 -81.35)"/></g></svg>